# xmcd CD database file
#
# Track frame offsets:
#	150
#	24830
#	42205
#	65712
#	88853
#	110846
#	136225
#	159954
#	188685
#	224529
#
# Disc length: 4188 seconds
#
# Revision: 0
# Processed by: cddbd v1.5.2PL0 Copyright (c) Steve Scherf et al.
# Submitted via: CDex 1.51
#
DISCID=88105a0a
DTITLE=Wolf Nilson - Die Hilights der ersten 3 Semester
DYEAR=2001
DGENRE=Jazz
TTITLE0='bout Herbie
TTITLE1=Humpty Dumpty
TTITLE2=My Funny Valentine
TTITLE3=Summertime
TTITLE4=Lellilellilelli
TTITLE5=Save Your Love For Me
TTITLE6=Roll Call
TTITLE7=These Foolisch Things
TTITLE8=Song To The Pharoah King
TTITLE9=Land Below Seelevel
EXTD=YEAR: 2001
EXTT0=
EXTT1=
EXTT2=
EXTT3=
EXTT4=
EXTT5=
EXTT6=
EXTT7=
EXTT8=
EXTT9=
PLAYORDER=
